<?xml version="1.0" encoding="utf-8"?>
<!-- Generator: Adobe Illustrator 15.0.0, SVG Export Plug-In . SVG Version: 6.00 Build 0)  -->
<!DOCTYPE svg PUBLIC "-//W3C//DTD SVG 1.1//EN" "http://www.w3.org/Graphics/SVG/1.1/DTD/svg11.dtd">
<svg version="1.1" id="Warstwa_1" xmlns="http://www.w3.org/2000/svg" xmlns:xlink="http://www.w3.org/1999/xlink" x="0px" y="0px"
	 width="499.569px" height="123.999px" viewBox="0 0 499.569 123.999" enable-background="new 0 0 499.569 123.999"
	 xml:space="preserve">
<path fill="#FFFFFF" d="M287.266,68.559v54h-27v-96.84h27v10.8c8.159-8.28,17.34-12.42,27.54-12.42c10.198,0,18.749,3.6,25.65,10.8
	c6.899,7.2,10.35,16.802,10.35,28.8v58.86h-27v-54.72c0-14.878-5.462-22.32-16.38-22.32c-5.399,0-10.11,1.952-14.13,5.851
	C289.274,55.27,287.266,60.999,287.266,68.559"/>
<path fill="#FFFFFF" d="M450.66,108.519c-10.921,10.322-23.732,15.48-38.43,15.48c-14.701,0-26.852-4.528-36.45-13.59
	c-9.603-9.06-14.4-21.21-14.4-36.45c0-15.238,4.889-27.36,14.67-36.36c9.779-9,21.33-13.5,34.65-13.5s24.629,4.022,33.93,12.061
	c9.298,8.04,13.95,19.079,13.95,33.119v14.4h-70.56c0.838,5.282,3.6,9.602,8.279,12.96c4.681,3.361,9.959,5.04,15.841,5.04
	c9.478,0,17.279-3.178,23.399-9.54L450.66,108.519z M424.74,51.099c-3.721-3.119-8.252-4.68-13.59-4.68
	c-5.341,0-10.232,1.62-14.67,4.86c-4.441,3.24-7.021,7.622-7.74,13.14h42.479C430.618,58.66,428.458,54.221,424.74,51.099"/>
<path fill="#FFFFFF" d="M462.399,7.666v17.819h-3.54V7.666h-6.63v-3.18h16.83v3.18H462.399z"/>
<path fill="#FFFFFF" d="M491.02,25.485l-0.03-15.689l-6.63,13.5h-2.31l-6.63-13.5v15.689h-3.33V4.486h4.2l6.93,13.949l6.899-13.949
	h4.17v20.999H491.02z"/>
<polygon fill="#58BB60" points="76.841,85.678 68.688,74.445 77.601,62.258 103.312,27.106 70.372,27.106 52.592,53.026 
	35.374,27.106 1.874,27.106 35.188,74.625 0.001,123.945 32.379,123.945 51.469,97.306 71.12,123.945 104.621,123.945 "/>
<path fill="#FFFFFF" d="M234.212,38.589c-9.72-9.658-21.932-14.49-36.63-14.49c-14.701,0-26.91,4.832-36.63,14.49
	c-6.844,6.803-11.268,14.695-13.293,23.669c-0.85,3.77-1.287,7.727-1.287,11.881c0,4.031,0.415,7.873,1.216,11.539
	c1.99,9.1,6.435,17.078,13.364,23.921c9.72,9.603,21.929,14.4,36.63,14.4c14.698,0,26.91-4.798,36.63-14.4
	c9.72-9.599,14.58-21.42,14.58-35.46S243.932,48.25,234.212,38.589 M214.862,93.488c-4.5,4.981-10.26,7.471-17.28,7.471
	s-12.78-2.489-17.28-7.471c-4.5-4.978-6.75-11.43-6.75-19.35s2.25-14.4,6.75-19.44s10.26-7.56,17.28-7.56s12.78,2.52,17.28,7.56
	s6.75,11.52,6.75,19.44S219.362,88.511,214.862,93.488"/>
<rect x="100.095" y="66.525" fill="#FFFFFF" width="28.333" height="18.165"/>
</svg>
